<?xml version="1.0" standalone="no"?>
<!DOCTYPE svg PUBLIC "-//W3C//DTD SVG 20010904//EN"
 "http://www.w3.org/TR/2001/REC-SVG-20010904/DTD/svg10.dtd">
<svg version="1.0" xmlns="http://www.w3.org/2000/svg"
 width="123.000000pt" height="123.000000pt" viewBox="0 0 123.000000 123.000000"
 preserveAspectRatio="xMidYMid meet">
<metadata>
Created by potrace 1.14, written by Peter Selinger 2001-2017
</metadata>
<g transform="translate(0.000000,123.000000) scale(0.100000,-0.100000)"
fill="#000000" stroke="none">
<path d="M525 1165 c-16 -8 -37 -19 -45 -24 -8 -5 -40 -21 -70 -34 -144 -62
-194 -186 -112 -279 22 -26 27 -23 42 23 13 40 88 135 98 125 5 -5 3 -108 -3
-216 -1 -25 -3 -84 -4 -132 l-1 -88 -35 0 c-33 0 -35 -2 -35 -34 0 -38 23 -68
45 -60 12 5 14 -19 14 -158 -1 -173 7 -221 35 -226 10 -2 42 6 72 18 50 21 55
25 50 49 -11 56 -21 229 -17 296 1 15 9 21 31 23 16 1 40 6 54 12 17 6 27 5
34 -3 6 -7 29 -68 52 -137 23 -69 53 -145 65 -170 44 -86 106 -128 176 -118
20 2 25 10 27 41 3 32 -3 44 -36 82 -45 51 -97 153 -142 278 l-32 88 51 45
c32 29 62 69 83 112 30 61 33 74 33 162 -1 78 -5 103 -22 136 -54 102 -151
162 -279 171 -50 4 -78 11 -81 20 -6 16 -10 16 -48 -2z m150 -146 c53 -15 118
-83 132 -138 37 -143 -33 -271 -170 -313 -37 -11 -71 -17 -75 -14 -7 7 0 458
7 474 3 6 70 1 106 -9z"/>
</g>
</svg>
